<svg width="38" height="38" viewBox="0 0 38 38" fill="none" xmlns="http://www.w3.org/2000/svg">
<path d="M36.7886 18.9408C36.7886 28.7179 28.8627 36.6438 19.0856 36.6438C9.30849 36.6438 1.3826 28.7179 1.3826 18.9408C1.3826 9.16369 9.30849 1.23779 19.0856 1.23779C28.8627 1.23779 36.7886 9.16369 36.7886 18.9408Z" fill="#0381FF"/>
<path fill-rule="evenodd" clip-rule="evenodd" d="M37.9685 18.9413C37.9685 29.3702 29.5142 37.8245 19.0853 37.8245C8.65644 37.8245 0.202148 29.3702 0.202148 18.9413C0.202148 8.5124 8.65644 0.0581055 19.0853 0.0581055C29.5142 0.0581055 37.9685 8.5124 37.9685 18.9413ZM19.0853 36.6443C28.8624 36.6443 36.7883 28.7184 36.7883 18.9413C36.7883 9.1642 28.8624 1.2383 19.0853 1.2383C9.30824 1.2383 1.38235 9.1642 1.38235 18.9413C1.38235 28.7184 9.30824 36.6443 19.0853 36.6443Z" fill="white"/>
<path fill-rule="evenodd" clip-rule="evenodd" d="M25.4037 13.4576C25.6341 13.2271 25.6341 12.8535 25.4037 12.623C25.1732 12.3926 24.7995 12.3926 24.569 12.623L19.0854 18.1068L13.6016 12.623C13.3712 12.3926 12.9976 12.3926 12.7671 12.623C12.5367 12.8535 12.5367 13.2271 12.7671 13.4576L18.2508 18.9413L12.7671 24.425C12.5367 24.6555 12.5367 25.0291 12.7671 25.2596C12.9976 25.49 13.3712 25.49 13.6016 25.2596L19.0854 19.7758L24.569 25.2596C24.7995 25.49 25.1732 25.49 25.4037 25.2596C25.6341 25.0291 25.6341 24.6555 25.4037 24.425L19.9199 18.9413L25.4037 13.4576Z" fill="white"/>
</svg>
