<svg width="38" height="38" viewBox="0 0 38 38" fill="none" xmlns="http://www.w3.org/2000/svg">
<path d="M36.6399 18.9696C36.6399 28.7467 28.714 36.6726 18.9369 36.6726C9.15978 36.6726 1.23389 28.7467 1.23389 18.9696C1.23389 9.1925 9.15978 1.2666 18.9369 1.2666C28.714 1.2666 36.6399 9.1925 36.6399 18.9696Z" fill="#0381FF"/>
<path fill-rule="evenodd" clip-rule="evenodd" d="M37.8198 18.9696C37.8198 29.3985 29.3655 37.8528 18.9367 37.8528C8.50776 37.8528 0.0534668 29.3985 0.0534668 18.9696C0.0534668 8.54072 8.50776 0.0864258 18.9367 0.0864258C29.3655 0.0864258 37.8198 8.54072 37.8198 18.9696ZM18.9367 36.6726C28.7137 36.6726 36.6396 28.7467 36.6396 18.9696C36.6396 9.19252 28.7137 1.26662 18.9367 1.26662C9.15956 1.26662 1.23367 9.19252 1.23367 18.9696C1.23367 28.7467 9.15956 36.6726 18.9367 36.6726Z" fill="white"/>
<path fill-rule="evenodd" clip-rule="evenodd" d="M10.0854 10.7078C10.0854 10.3819 10.3496 10.1177 10.6755 10.1177H16.5765C16.9024 10.1177 17.1666 10.3819 17.1666 10.7078C17.1666 11.0337 16.9024 11.2979 16.5765 11.2979H11.2656V16.6088C11.2656 16.9347 11.0014 17.1989 10.6755 17.1989C10.3496 17.1989 10.0854 16.9347 10.0854 16.6088V10.7078Z" fill="white"/>
<path fill-rule="evenodd" clip-rule="evenodd" d="M26.608 27.2312C26.608 27.5571 26.3438 27.8213 26.0179 27.8213H20.1169C19.791 27.8213 19.5268 27.5571 19.5268 27.2312C19.5268 26.9053 19.791 26.6411 20.1169 26.6411H25.4278V21.3302C25.4278 21.0043 25.692 20.7401 26.0179 20.7401C26.3438 20.7401 26.608 21.0043 26.608 21.3302V27.2312Z" fill="white"/>
<path fill-rule="evenodd" clip-rule="evenodd" d="M10.274 10.2754C10.5128 10.0536 10.8862 10.0674 11.1079 10.3062L26.4505 26.829C26.6723 27.0679 26.6584 27.4412 26.4196 27.663C26.1808 27.8847 25.8074 27.8709 25.5857 27.6321L10.2431 11.1093C10.0213 10.8705 10.0351 10.4971 10.274 10.2754Z" fill="white"/>
</svg>
