<svg width="43" height="360" viewBox="0 0 43 360" fill="none" xmlns="http://www.w3.org/2000/svg">
<path fill-rule="evenodd" clip-rule="evenodd" d="M21.4718 336.583C24.2257 336.583 26.4582 334.35 26.4582 331.596C26.4582 328.842 24.2257 326.61 21.4718 326.61C18.7179 326.61 16.4854 328.842 16.4854 331.596C16.4854 334.35 18.7179 336.583 21.4718 336.583ZM21.4718 337.829C24.9142 337.829 27.7048 335.039 27.7048 331.596C27.7048 328.154 24.9142 325.363 21.4718 325.363C18.0294 325.363 15.2388 328.154 15.2388 331.596C15.2388 335.039 18.0294 337.829 21.4718 337.829Z" fill="white"/>
<path fill-rule="evenodd" clip-rule="evenodd" d="M21.4722 13.0894C21.8164 13.0894 22.0955 13.3684 22.0955 13.7127V16.2059C22.0955 16.5501 21.8164 16.8292 21.4722 16.8292C21.1279 16.8292 20.8489 16.5501 20.8489 16.2059V13.7127C20.8489 13.3684 21.1279 13.0894 21.4722 13.0894ZM11.3329 17.286C11.5763 17.0426 11.9709 17.0426 12.2143 17.286L13.9845 19.0562C14.2279 19.2996 14.2279 19.6942 13.9845 19.9376C13.7411 20.181 13.3464 20.181 13.103 19.9376L11.3329 18.1675C11.0894 17.924 11.0894 17.5294 11.3329 17.286ZM31.6115 17.286C31.8549 17.5294 31.8549 17.924 31.6115 18.1675L29.8413 19.9376C29.5979 20.181 29.2032 20.181 28.9598 19.9376C28.7164 19.6942 28.7164 19.2996 28.9598 19.0562L30.73 17.286C30.9734 17.0426 31.3681 17.0426 31.6115 17.286ZM21.4722 21.8156C18.374 21.8156 15.8624 24.3271 15.8624 27.4253C15.8624 30.5234 18.374 33.035 21.4722 33.035C24.5703 33.035 27.0819 30.5234 27.0819 27.4253C27.0819 24.3271 24.5703 21.8156 21.4722 21.8156ZM14.6158 27.4253C14.6158 23.6386 17.6855 20.569 21.4722 20.569C25.2588 20.569 28.3285 23.6386 28.3285 27.4253C28.3285 31.2119 25.2588 34.2816 21.4722 34.2816C17.6855 34.2816 14.6158 31.2119 14.6158 27.4253ZM7.13623 27.4253C7.13623 27.081 7.41529 26.802 7.75953 26.802H10.2527C10.597 26.802 10.876 27.081 10.876 27.4253C10.876 27.7695 10.597 28.0486 10.2527 28.0486H7.75953C7.41529 28.0486 7.13623 27.7695 7.13623 27.4253ZM32.0683 27.4253C32.0683 27.081 32.3473 26.802 32.6916 26.802H35.1848C35.529 26.802 35.8081 27.081 35.8081 27.4253C35.8081 27.7695 35.529 28.0486 35.1848 28.0486H32.6916C32.3473 28.0486 32.0683 27.7695 32.0683 27.4253ZM13.9845 34.9129C14.2279 35.1563 14.2279 35.551 13.9845 35.7944L12.2143 37.5646C11.9709 37.808 11.5763 37.808 11.3329 37.5646C11.0894 37.3212 11.0894 36.9265 11.3329 36.6831L13.103 34.9129C13.3464 34.6695 13.7411 34.6695 13.9845 34.9129ZM28.9598 34.9129C29.2032 34.6695 29.5979 34.6695 29.8413 34.9129L31.6115 36.6831C31.8549 36.9265 31.8549 37.3212 31.6115 37.5646C31.3681 37.808 30.9734 37.808 30.73 37.5646L28.9598 35.7944C28.7164 35.551 28.7164 35.1563 28.9598 34.9129ZM21.4722 38.0214C21.8164 38.0214 22.0955 38.3005 22.0955 38.6447V41.1379C22.0955 41.4821 21.8164 41.7612 21.4722 41.7612C21.1279 41.7612 20.8489 41.4821 20.8489 41.1379V38.6447C20.8489 38.3005 21.1279 38.0214 21.4722 38.0214Z" fill="white"/>
</svg>
