<svg width="43" height="360" viewBox="0 0 43 360" fill="none" xmlns="http://www.w3.org/2000/svg">
<path fill-rule="evenodd" clip-rule="evenodd" d="M21.5502 337.557C24.9175 337.557 27.6472 334.827 27.6472 331.46C27.6472 328.093 24.9175 325.363 21.5502 325.363C18.1829 325.363 15.4531 328.093 15.4531 331.46C15.4531 334.827 18.1829 337.557 21.5502 337.557ZM21.5502 338.803C25.6059 338.803 28.8938 335.516 28.8938 331.46C28.8938 327.404 25.6059 324.116 21.5502 324.116C17.4944 324.116 14.2065 327.404 14.2065 331.46C14.2065 335.516 17.4944 338.803 21.5502 338.803Z" fill="white"/>
<path fill-rule="evenodd" clip-rule="evenodd" d="M21.6411 326.565C24.345 326.565 26.5369 328.757 26.5369 331.461C26.5369 334.165 24.345 336.356 21.6411 336.356V326.565Z" fill="white"/>
<path fill-rule="evenodd" clip-rule="evenodd" d="M21.686 14.959C28.5708 14.959 34.152 20.5402 34.152 27.425C34.152 34.3098 28.5708 39.891 21.686 39.891C14.8012 39.891 9.21997 34.3098 9.21997 27.425C9.21997 20.5402 14.8012 14.959 21.686 14.959ZM21.686 16.2056C15.4897 16.2056 10.4666 21.2287 10.4666 27.425C10.4666 33.6214 15.4897 38.6445 21.686 38.6445C27.8823 38.6445 32.9055 33.6214 32.9055 27.425C32.9055 21.2287 27.8823 16.2056 21.686 16.2056ZM21.686 18.6988H21.6861V36.1513H21.686C16.8667 36.1513 12.9598 32.2444 12.9598 27.425C12.9598 22.6057 16.8667 18.6988 21.686 18.6988Z" fill="#1EA1F3"/>
</svg>
