<svg width="176" height="36" viewBox="0 0 176 36" fill="none" xmlns="http://www.w3.org/2000/svg">
<path d="M13.4214 15.739V7.71436H18.4072V28.7191H13.4214V20.2274H4.98431V28.7191H0V7.71436H4.98431V15.739H13.4214Z" fill="black"/>
<path d="M30.4211 29.1907C27.6916 29.1907 25.4888 28.4532 23.8127 26.9783C22.1417 25.5428 21.3062 23.4578 21.3062 20.7233V7.71436H26.2905V20.7824C26.2905 22.1199 26.6493 23.1379 27.3671 23.8364C28.0848 24.5349 29.1028 24.8837 30.4211 24.8827C31.7352 24.8827 32.7578 24.5339 33.4887 23.8364C34.2196 23.1389 34.5835 22.1209 34.5804 20.7824V7.71436H39.5663V20.7233C39.5663 23.4184 38.755 25.5034 37.1325 26.9783C35.51 28.4532 33.2728 29.1907 30.4211 29.1907Z" fill="black"/>
<path d="M56.6697 17.5374C57.7558 17.9101 58.6955 18.6178 59.3537 19.5587C59.989 20.4496 60.3294 21.517 60.3272 22.6112C60.3272 24.54 59.6832 26.0397 58.3953 27.1102C57.1074 28.1808 55.213 28.7171 52.712 28.7191H42.4461V7.71436H52.4178C54.7378 7.71436 56.4928 8.20616 57.6826 9.18978C58.8725 10.1734 59.4674 11.4714 59.4674 13.0838C59.4704 15.1693 58.5379 16.6539 56.6697 17.5374ZM52.1054 11.6963H47.4441V16.1802H52.1054C52.8717 16.1802 53.4666 15.974 53.8902 15.5616C54.3138 15.1491 54.525 14.5886 54.524 13.8799C54.524 13.2117 54.3127 12.6805 53.8902 12.2862C53.4676 11.892 52.8727 11.6953 52.1054 11.6963ZM47.4441 24.7371H52.4299C53.3134 24.7371 53.9968 24.5309 54.48 24.1184C54.9632 23.706 55.2038 23.1156 55.2018 22.3473C55.2018 20.7551 54.2778 19.959 52.4299 19.959H47.4441V24.7371Z" fill="black"/>
<path d="M82.2857 28.7176H76.387L71.1161 21.9834L65.8437 28.7176H59.945L68.1668 18.2183L59.945 7.71436H65.8407L71.1161 14.4501L74.0639 18.2183L76.7024 21.5891L82.2857 28.7176Z" fill="black"/>
<path d="M77.0133 14.4501H71.1161L76.39 7.71436H82.2857L77.0133 14.4501Z" fill="black"/>
<rect opacity="0.32" x="100.286" y="6.42871" width="0.642857" height="24.4286" fill="black"/>
<path d="M128.341 27.3909C125.98 27.3909 124.083 26.5603 122.649 24.8991C121.2 23.2543 120.475 21.0557 120.475 18.3034C120.475 15.5674 121.2 13.3607 122.649 11.6833C124.099 10.0384 125.996 9.216 128.341 9.216C130.23 9.216 131.818 9.75343 133.105 10.8283C134.391 11.8869 135.222 13.4014 135.597 15.372H134.131C133.789 13.8249 133.105 12.636 132.079 11.8054C131.069 10.9586 129.823 10.5351 128.341 10.5351C126.403 10.5351 124.856 11.2354 123.7 12.636C122.56 14.0366 121.99 15.9257 121.99 18.3034C121.99 20.6811 122.56 22.5621 123.7 23.9464C124.84 25.3633 126.387 26.0717 128.341 26.0717C129.856 26.0717 131.167 25.5913 132.274 24.6304C133.382 23.6696 134.041 22.3423 134.253 20.6486H135.694C135.483 22.7331 134.685 24.378 133.3 25.5831C131.916 26.7883 130.263 27.3909 128.341 27.3909ZM148.772 25.8763H149.431V27C149.154 27.0489 148.853 27.0733 148.527 27.0733C147.843 27.0733 147.347 26.9104 147.037 26.5847C146.728 26.2427 146.573 25.7216 146.573 25.0213V24.8503C145.726 26.4789 144.204 27.2931 142.005 27.2931C140.653 27.2931 139.603 26.9756 138.854 26.3404C138.121 25.689 137.754 24.8014 137.754 23.6777C137.754 21.4954 139.253 20.2251 142.249 19.8669L144.204 19.647C145.067 19.533 145.669 19.3213 146.011 19.0119C146.353 18.7024 146.524 18.2301 146.524 17.595C146.524 16.0641 145.441 15.2987 143.275 15.2987C142.021 15.2987 141.109 15.5186 140.539 15.9583C139.986 16.398 139.684 17.139 139.635 18.1813H138.292C138.373 15.4616 140.034 14.1017 143.275 14.1017C144.806 14.1017 145.954 14.4111 146.72 15.03C147.485 15.6326 147.868 16.4876 147.868 17.595V24.9724C147.868 25.575 148.169 25.8763 148.772 25.8763ZM142.078 26.1206C143.332 26.1206 144.391 25.7623 145.254 25.0457C146.101 24.3454 146.524 23.295 146.524 21.8944V19.989C146.117 20.3961 145.417 20.6567 144.423 20.7707L142.469 21.015C141.313 21.1616 140.474 21.4466 139.953 21.87C139.448 22.2771 139.196 22.8716 139.196 23.6533C139.196 24.4187 139.44 25.0213 139.929 25.461C140.417 25.9007 141.134 26.1206 142.078 26.1206ZM155.946 27.2931C154.333 27.2931 153.079 26.9349 152.184 26.2183C151.288 25.5017 150.799 24.4594 150.718 23.0914H152.135C152.298 25.0946 153.568 26.0961 155.946 26.0961C158.291 26.0961 159.463 25.2981 159.463 23.7021C159.463 23.0507 159.227 22.5459 158.755 22.1876C158.283 21.8293 157.485 21.5443 156.361 21.3326L155.066 21.1127C153.715 20.8684 152.713 20.4613 152.062 19.8913C151.426 19.305 151.109 18.5233 151.109 17.5461C151.109 16.4713 151.508 15.6326 152.306 15.03C153.104 14.4111 154.211 14.1017 155.628 14.1017C158.836 14.1017 160.498 15.4046 160.612 18.0103H159.195C159.13 17.082 158.812 16.398 158.242 15.9583C157.672 15.5186 156.801 15.2987 155.628 15.2987C154.635 15.2987 153.861 15.4941 153.307 15.885C152.77 16.2759 152.501 16.8214 152.501 17.5217C152.501 18.1731 152.729 18.678 153.185 19.0363C153.658 19.3946 154.423 19.6714 155.482 19.8669L156.752 20.0867C158.201 20.3473 159.244 20.7626 159.879 21.3326C160.53 21.8863 160.856 22.6517 160.856 23.6289C160.856 24.8177 160.416 25.7297 159.537 26.3649C158.674 26.9837 157.477 27.2931 155.946 27.2931ZM174.164 20.673V21.1616H164.271C164.336 22.725 164.743 23.9301 165.492 24.777C166.258 25.6076 167.3 26.0229 168.619 26.0229C169.629 26.0229 170.468 25.7541 171.135 25.2167C171.803 24.663 172.243 23.9139 172.454 22.9693H173.896C173.603 24.3047 172.992 25.3633 172.064 26.145C171.135 26.9104 169.971 27.2931 168.57 27.2931C166.811 27.2931 165.419 26.6906 164.393 25.4854C163.367 24.2803 162.854 22.6843 162.854 20.6974C162.854 18.7269 163.367 17.1309 164.393 15.9094C165.403 14.7043 166.779 14.1017 168.521 14.1017C170.297 14.1017 171.681 14.7206 172.674 15.9583C173.668 17.196 174.164 18.7676 174.164 20.673ZM168.521 15.372C167.316 15.372 166.339 15.771 165.59 16.569C164.841 17.367 164.409 18.4826 164.295 19.9157H172.674C172.593 18.5314 172.186 17.4321 171.453 16.6179C170.736 15.7873 169.759 15.372 168.521 15.372Z" fill="url(#paint0_linear_5_295)"/>
<defs>
<linearGradient id="paint0_linear_5_295" x1="147.571" y1="0" x2="147.571" y2="36" gradientUnits="userSpaceOnUse">
<stop stop-opacity="0.8"/>
<stop offset="1"/>
</linearGradient>
</defs>
</svg>
