<svg width="32" height="32" fill="#0381FF" viewBox="0 0 32 32" xmlns="http://www.w3.org/2000/svg">
<path d="M10.6462 26.4938H21.3538C23.5134 26.4938 24.6283 25.3587 24.6283 23.1891V14.1991H17.0949C15.8393 14.1991 15.2366 13.5965 15.2366 12.3409V4.72705H10.6462C8.49665 4.72705 7.37165 5.8621 7.37165 8.04178V23.1891C7.37165 25.3587 8.49665 26.4938 10.6462 26.4938ZM17.2857 12.7326H24.5279C24.4676 12.2706 24.1362 11.8387 23.6138 11.3063L18.1194 5.74156C17.6172 5.22928 17.1652 4.88777 16.7031 4.8275V12.15C16.7132 12.5418 16.904 12.7326 17.2857 12.7326ZM12.1027 18.6489C11.6708 18.6489 11.3594 18.3375 11.3594 17.9358C11.3594 17.534 11.6708 17.2226 12.1027 17.2226H19.9275C20.3393 17.2226 20.6607 17.534 20.6607 17.9358C20.6607 18.3375 20.3393 18.6489 19.9275 18.6489H12.1027ZM12.1027 22.4157C11.6708 22.4157 11.3594 22.1043 11.3594 21.7025C11.3594 21.3007 11.6708 20.9893 12.1027 20.9893H19.9275C20.3393 20.9893 20.6607 21.3007 20.6607 21.7025C20.6607 22.1043 20.3393 22.4157 19.9275 22.4157H12.1027Z" fill="#0381FF"/>
</svg>
