<svg width="32" height="32" fill="#0381FF" viewBox="0 0 32 32" xmlns="http://www.w3.org/2000/svg">
<g id="Iconly/Bulk/Time Circle">
<g id="export (1) 1" clip-path="url(#clip0_5_168)">
<g id="Group">
<g id="Group_2">
<path id="Vector" d="M24.8476 7.46885L19.8594 2.48047V7.46885H24.8476Z" fill="#0381FF"/>
</g>
<g id="Group_3">
<path id="Vector_2" d="M17.2344 17.0938C17.2344 16.6407 17.6017 16.2734 18.0547 16.2734H25.3281V9.10938H19.0391C18.586 9.10938 18.2188 8.74209 18.2188 8.28906V2H7.00781C5.3493 2 4 3.3493 4 5.00781V26.9922C4 28.6507 5.3493 30 7.00781 30H22.3203C23.9788 30 25.3281 28.6507 25.3281 26.9922V17.9141H18.0547C17.6017 17.9141 17.2344 17.5468 17.2344 17.0938ZM8.10156 11.3516H17.3984C17.8515 11.3516 18.2188 11.7188 18.2188 12.1719C18.2188 12.6249 17.8515 12.9922 17.3984 12.9922H8.10156C7.64853 12.9922 7.28125 12.6249 7.28125 12.1719C7.28125 11.7188 7.64853 11.3516 8.10156 11.3516ZM8.10156 14.6328H15.2109C15.664 14.6328 16.0312 15.0001 16.0312 15.4531C16.0312 15.9062 15.664 16.2734 15.2109 16.2734H8.10156C7.64853 16.2734 7.28125 15.9062 7.28125 15.4531C7.28125 15.0001 7.64853 14.6328 8.10156 14.6328ZM8.10156 17.9141H15.2109C15.664 17.9141 16.0312 18.2813 16.0312 18.7344C16.0312 19.1874 15.664 19.5547 15.2109 19.5547H8.10156C7.64853 19.5547 7.28125 19.1874 7.28125 18.7344C7.28125 18.2813 7.64853 17.9141 8.10156 17.9141ZM17.3984 22.8359H8.10156C7.64853 22.8359 7.28125 22.4687 7.28125 22.0156C7.28125 21.5626 7.64853 21.1953 8.10156 21.1953H17.3984C17.8515 21.1953 18.2188 21.5626 18.2188 22.0156C18.2188 22.4687 17.8515 22.8359 17.3984 22.8359Z" fill="#0381FF"/>
<path id="Vector_3" d="M31.7597 16.5137L28.4784 13.2325C28.1581 12.9121 27.6387 12.9121 27.3184 13.2325C26.998 13.5528 26.998 14.0722 27.3184 14.3925L29.1993 16.2734H25.3281V17.914H29.1993L27.3184 19.795C26.998 20.1153 26.998 20.6347 27.3184 20.955C27.4785 21.1152 27.6885 21.1953 27.8984 21.1953C28.1084 21.1953 28.3183 21.1152 28.4784 20.955L31.7597 17.6737C32.0801 17.3534 32.0801 16.8341 31.7597 16.5137Z" fill="#0381FF"/>
</g>
</g>
</g>
</g>
<defs>
<clipPath id="clip0_5_168">
<rect width="28" height="28" fill="white" transform="translate(4 2)"/>
</clipPath>
</defs>
</svg>
