<svg width="32" height="32" fill="#0381FF" viewBox="0 0 32 32" xmlns="http://www.w3.org/2000/svg">
<path d="M30 21.0001C29.9909 22.4361 29.6396 23.8492 28.9752 25.1223C28.3107 26.3953 27.3524 27.4916 26.1795 28.3202C25.0067 29.1489 23.6532 29.6859 22.2313 29.8868C20.8094 30.0877 19.3601 29.9468 18.0035 29.4756C19.3536 28.3638 20.4176 26.9446 21.1062 25.3369C21.7948 23.7292 22.088 21.9799 21.9613 20.2356C24.2142 18.7733 25.8578 16.541 26.585 13.9556C27.649 14.7959 28.509 15.8662 29.1004 17.0862C29.6919 18.3062 29.9994 19.6443 30 21.0001Z" fill="#0381FF"/>
<path d="M19.9878 21.2405C19.9492 22.7538 19.5292 24.2329 18.7669 25.5408C18.0046 26.8486 16.9245 27.9429 15.6268 28.7224C14.329 29.5018 12.8556 29.9411 11.3429 29.9996C9.83018 30.058 8.3272 29.7338 6.97314 29.0569C5.61909 28.38 4.45775 27.3724 3.59672 26.1273C2.73569 24.8822 2.20281 23.4399 2.04744 21.9341C1.89208 20.4283 2.11925 18.9076 2.70791 17.5129C3.29657 16.1182 4.22769 14.8947 5.41501 13.9556C5.83623 15.4285 6.55906 16.7978 7.53763 17.9765C8.51619 19.1552 9.72912 20.1176 11.0994 20.8027C12.4697 21.4877 13.9675 21.8803 15.4976 21.9557C17.0277 22.0311 18.5568 21.7875 19.9878 21.2405Z" fill="#0381FF"/>
<path d="M7 11C7 9.21997 7.52784 7.47991 8.51677 5.99987C9.50571 4.51983 10.9113 3.36628 12.5558 2.68509C14.2004 2.0039 16.01 1.82567 17.7558 2.17294C19.5016 2.5202 21.1053 3.37737 22.364 4.63604C23.6226 5.89471 24.4798 7.49836 24.8271 9.24419C25.1743 10.99 24.9961 12.7996 24.3149 14.4442C23.6337 16.0887 22.4802 17.4943 21.0001 18.4832C19.5201 19.4722 17.78 20 16 20C13.6139 19.9974 11.3262 19.0483 9.63896 17.361C7.95171 15.6738 7.00265 13.3861 7 11Z" fill="#0381FF"/>
</svg>
