<svg width="365" height="740" viewBox="0 0 365 740" fill="none" xmlns="http://www.w3.org/2000/svg">
<g clip-path="url(#clip0_33_77)">
<path fill-rule="evenodd" clip-rule="evenodd" d="M-0.000244141 59.6286V63.6447V681.606V685.655C-0.000244141 700.077 5.72786 713.908 15.9242 724.106C26.1205 734.304 39.9498 740.033 54.3696 740.033H307.121C337.144 740.033 360.984 715.65 360.997 685.622L365 59.395C365 58.9412 364.994 58.488 364.983 58.0354L365 55.3789C365 25.3512 335.157 0.500352 310.637 0.500352L58.6118 0C26.2407 0 -0.000244141 27.2525 -0.000244141 59.6286ZM56 14C31.6995 14 12 33.6995 12 58V686C12 710.301 31.6995 730 56 730H309C333.301 730 353 710.301 353 686V58C353 33.6995 333.301 14 309 14H56Z" fill="#D9D9D9"/>
<path d="M311.135 9.49038L60.0108 8.98389C45.5581 8.99976 31.7018 14.752 21.4822 24.9784C11.2626 35.2049 5.5141 49.0704 5.49824 63.5328L4.99207 685.377C5.00793 698.714 10.3103 711.501 19.7357 720.932C29.1612 730.362 41.94 735.666 55.2688 735.68L306.626 735.181C313.193 735.209 319.7 733.922 325.762 731.394C331.824 728.867 337.32 725.151 341.924 720.465C351.276 710.981 356.488 698.174 356.416 684.85L361.425 59.794C361.409 46.4541 356.105 33.6653 346.676 24.2344C337.248 14.8036 324.466 9.50097 311.135 9.49038ZM348.877 684.85C348.943 696.195 344.509 707.102 336.549 715.18C332.645 719.153 327.985 722.304 322.845 724.447C317.705 726.59 312.188 727.681 306.619 727.656L55.2489 728.163C43.915 728.147 33.05 723.634 25.0369 715.613C17.0239 707.592 12.517 696.718 12.5046 685.377L13.0041 63.5394C13.0182 51.0691 17.9755 39.1137 26.7881 30.2965C35.6007 21.4793 47.5488 16.5204 60.0108 16.5081L92.5319 16.5747C94.7674 16.576 96.9458 17.2807 98.7589 18.5891C100.572 19.8976 101.928 21.7435 102.635 23.8657L105.812 33.3493C106.631 35.7935 108.197 37.9184 110.288 39.4239C112.38 40.9295 114.891 41.7396 117.467 41.7399H250.442C252.983 41.7396 255.462 40.9513 257.537 39.4833C259.612 38.0153 261.182 35.9399 262.03 33.5425L265.36 24.0656C266.095 21.9768 267.461 20.1685 269.269 18.8918C271.077 17.6151 273.237 16.9334 275.45 16.9413L311.101 17.0079C322.434 17.0167 333.301 21.5224 341.319 29.5368C349.337 37.5513 352.851 48.9508 352.872 60.2911L348.877 684.85Z" fill="#191919"/>
<path d="M228.271 29.0406C227.285 29.0406 226.32 28.748 225.499 28.1997C224.679 27.6513 224.039 26.872 223.662 25.9601C223.284 25.0483 223.185 24.0449 223.378 23.0769C223.57 22.1089 224.046 21.2198 224.743 20.5219C225.441 19.824 226.33 19.3487 227.298 19.1562C228.266 18.9636 229.269 19.0625 230.181 19.4402C231.092 19.8179 231.872 20.4575 232.42 21.2781C232.968 22.0987 233.261 23.0635 233.261 24.0505C233.259 25.3734 232.733 26.6417 231.797 27.5771C230.862 28.5126 229.594 29.0389 228.271 29.0406V29.0406Z" fill="url(#paint0_radial_33_77)"/>
<path d="M160.408 21.095H204.686C205.56 21.095 206.398 21.4422 207.016 22.0602C207.634 22.6783 207.981 23.5166 207.981 24.3906V24.3906C207.981 25.2647 207.634 26.1029 207.016 26.721C206.398 27.339 205.56 27.6863 204.686 27.6863H160.408C159.534 27.6863 158.696 27.339 158.078 26.721C157.46 26.1029 157.113 25.2647 157.113 24.3906V24.3906C157.113 23.5166 157.46 22.6783 158.078 22.0602C158.696 21.4422 159.534 21.095 160.408 21.095V21.095Z" fill="#353433"/>
<path d="M289.398 8.99319V5.02374L287.271 0.453857H294.608L296.656 5.02374V9.00653L289.398 8.99319Z" fill="#4E5C66"/>
<path d="M365 69.1284H360.985V75.5396H365V69.1284Z" fill="#4E5C66"/>
<path d="M4.50889 69.1284H-0.000244141V75.5396H4.50889V69.1284Z" fill="#4E5C66"/>
<path d="M74.4408 735.977H68.4708V739.993H74.4408V735.977Z" fill="#4E5C66"/>
<path d="M4.02196 671.305H-0.000244141V677.176H4.02196V671.305Z" fill="#4E5C66"/>
<path d="M360.984 671.305H356.962V677.176H360.984V671.305Z" fill="#4E5C66"/>
</g>
<defs>
<radialGradient id="paint0_radial_33_77" cx="0" cy="0" r="1" gradientUnits="userSpaceOnUse" gradientTransform="translate(227.751 22.8363) scale(7.7443 7.74544)">
<stop stop-color="#1E6289"/>
<stop offset="0.44" stop-color="#1B363B"/>
<stop offset="0.85" stop-color="#1B363B"/>
</radialGradient>
<clipPath id="clip0_33_77">
<rect width="365" height="740" fill="white"/>
</clipPath>
</defs>
</svg>
